# xmcd
#
# Track frame offsets: 
#        150
#        17253
#        31104
#        46671
#        59219
#        71734
#        88842
#        114040
#        125212
#        139235
#        151325
#        169368
#
# Disc length: 2500 seconds
#
# Revision: 1
# Processed by: cddbd v1.5.2PL0 Copyright (c) Steve Scherf et al.
# Submitted via: ExactAudioCopyFreeDBPlugin 1.0
#
DISCID=a109c20c
DTITLE=Ingham County Regulars - Ingham County Regulars
DYEAR=2004
DGENRE=Country
TTITLE0=Pretty Lies
TTITLE1=Burn Up The Highway
TTITLE2=That Girl With Coal Black Eyes
TTITLE3=Bad Girl Blues
TTITLE4=Ramblin' On
TTITLE5=Spodee Odee
TTITLE6=Dark As A Dungeon
TTITLE7=Cha-Cha-Chuy
TTITLE8=Crazy 'Bout That Crazy Girl
TTITLE9=Ragin'
TTITLE10=Will I Go Down?
TTITLE11=Rock And Roll Machine
EXTD=
EXTT0=
EXTT1=
EXTT2=
EXTT3=
EXTT4=
EXTT5=
EXTT6=
EXTT7=
EXTT8=
EXTT9=
EXTT10=
EXTT11=
PLAYORDER=
